<svg xmlns="http://www.w3.org/2000/svg" xmlns:xlink="http://www.w3.org/1999/xlink" version="1.1" x="0px" y="0px" viewBox="0 0 1920 1080" style="enable-background:new 0 0 1920 1080;" xml:space="preserve">
<g id="BACKGROUND">
	<rect width="1920" height="1080"/>
</g>
<g id="OBJECTS_2">
	<g>
		<g>
			<g>
				
					<rect style="fill:none;stroke:#7D7D79;stroke-width:0.5556;stroke-linecap:round;stroke-linejoin:round;stroke-miterlimit:10;" width="61.118" height="391.538"/>
				
					<rect x="61.118" style="fill:none;stroke:#7D7D79;stroke-width:0.5556;stroke-linecap:round;stroke-linejoin:round;stroke-miterlimit:10;" width="61.119" height="391.538"/>
				
					<rect x="122.237" style="fill:none;stroke:#7D7D79;stroke-width:0.5556;stroke-linecap:round;stroke-linejoin:round;stroke-miterlimit:10;" width="61.119" height="391.538"/>
				
					<rect x="183.356" style="fill:none;stroke:#7D7D79;stroke-width:0.5556;stroke-linecap:round;stroke-linejoin:round;stroke-miterlimit:10;" width="61.119" height="391.538"/>
				
					<rect x="244.474" style="fill:none;stroke:#7D7D79;stroke-width:0.5556;stroke-linecap:round;stroke-linejoin:round;stroke-miterlimit:10;" width="61.119" height="391.538"/>
				
					<rect x="305.593" style="fill:none;stroke:#7D7D79;stroke-width:0.5556;stroke-linecap:round;stroke-linejoin:round;stroke-miterlimit:10;" width="61.118" height="391.538"/>
			</g>
			<g>
				
					<rect style="fill:none;stroke:#7D7D79;stroke-width:0.5556;stroke-linecap:round;stroke-linejoin:round;stroke-miterlimit:10;" width="366.711" height="65.256"/>
				
					<rect y="65.256" style="fill:none;stroke:#7D7D79;stroke-width:0.5556;stroke-linecap:round;stroke-linejoin:round;stroke-miterlimit:10;" width="366.711" height="65.256"/>
				
					<rect y="130.512" style="fill:none;stroke:#7D7D79;stroke-width:0.5556;stroke-linecap:round;stroke-linejoin:round;stroke-miterlimit:10;" width="366.711" height="65.256"/>
				
					<rect y="195.769" style="fill:none;stroke:#7D7D79;stroke-width:0.5556;stroke-linecap:round;stroke-linejoin:round;stroke-miterlimit:10;" width="366.711" height="65.257"/>
				
					<rect y="261.025" style="fill:none;stroke:#7D7D79;stroke-width:0.5556;stroke-linecap:round;stroke-linejoin:round;stroke-miterlimit:10;" width="366.711" height="65.257"/>
				
					<rect y="326.282" style="fill:none;stroke:#7D7D79;stroke-width:0.5556;stroke-linecap:round;stroke-linejoin:round;stroke-miterlimit:10;" width="366.711" height="65.256"/>
			</g>
		</g>
	</g>
	<g>
		<g>
			<g>
				
					<rect x="696.708" y="688.462" style="fill:none;stroke:#7D7D79;stroke-width:0.5556;stroke-linecap:round;stroke-linejoin:round;stroke-miterlimit:10;" width="61.118" height="391.538"/>
				
					<rect x="757.826" y="688.462" style="fill:none;stroke:#7D7D79;stroke-width:0.5556;stroke-linecap:round;stroke-linejoin:round;stroke-miterlimit:10;" width="61.119" height="391.538"/>
				
					<rect x="818.945" y="688.462" style="fill:none;stroke:#7D7D79;stroke-width:0.5556;stroke-linecap:round;stroke-linejoin:round;stroke-miterlimit:10;" width="61.119" height="391.538"/>
				
					<rect x="880.064" y="688.462" style="fill:none;stroke:#7D7D79;stroke-width:0.5556;stroke-linecap:round;stroke-linejoin:round;stroke-miterlimit:10;" width="61.119" height="391.538"/>
				
					<rect x="941.183" y="688.462" style="fill:none;stroke:#7D7D79;stroke-width:0.5556;stroke-linecap:round;stroke-linejoin:round;stroke-miterlimit:10;" width="61.119" height="391.538"/>
				
					<rect x="1002.301" y="688.462" style="fill:none;stroke:#7D7D79;stroke-width:0.5556;stroke-linecap:round;stroke-linejoin:round;stroke-miterlimit:10;" width="61.118" height="391.538"/>
			</g>
			<g>
				
					<rect x="696.708" y="688.462" style="fill:none;stroke:#7D7D79;stroke-width:0.5556;stroke-linecap:round;stroke-linejoin:round;stroke-miterlimit:10;" width="366.711" height="65.257"/>
				
					<rect x="696.708" y="753.719" style="fill:none;stroke:#7D7D79;stroke-width:0.5556;stroke-linecap:round;stroke-linejoin:round;stroke-miterlimit:10;" width="366.711" height="65.256"/>
				
					<rect x="696.708" y="818.975" style="fill:none;stroke:#7D7D79;stroke-width:0.5556;stroke-linecap:round;stroke-linejoin:round;stroke-miterlimit:10;" width="366.711" height="65.257"/>
				
					<rect x="696.708" y="884.231" style="fill:none;stroke:#7D7D79;stroke-width:0.5556;stroke-linecap:round;stroke-linejoin:round;stroke-miterlimit:10;" width="366.711" height="65.256"/>
				
					<rect x="696.708" y="949.488" style="fill:none;stroke:#7D7D79;stroke-width:0.5556;stroke-linecap:round;stroke-linejoin:round;stroke-miterlimit:10;" width="366.711" height="65.257"/>
				
					<rect x="696.708" y="1014.744" style="fill:none;stroke:#7D7D79;stroke-width:0.5556;stroke-linecap:round;stroke-linejoin:round;stroke-miterlimit:10;" width="366.711" height="65.256"/>
			</g>
		</g>
	</g>
	<g>
		<defs>
			<rect id="SVGID_1_" width="1920" height="1080"/>
		</defs>
		<clipPath id="SVGID_00000170989744377915032960000012686013515264792236_">
			<use xlink:href="#SVGID_1_" style="overflow:visible;"/>
		</clipPath>
		<g style="clip-path:url(#SVGID_00000170989744377915032960000012686013515264792236_);">
			<path style="fill:#FFFFFF;" d="M161.132,22.612c-1.792-6.974-6.481-11.682-11.761-11.682h-15.263     c-2.631-11.232-7.049-21.772-12.962-31.298l10.824-10.824c3.457-3.458,3.96-9.493,0.743-15.287     c-4.406-7.937-10.488-14.198-18.246-18.784c-6.199-3.664-12.843-3.678-16.577,0.057L87.097-54.412     c-9.525-5.911-20.064-10.329-31.296-12.961L55.8-82.686c0-4.89-3.912-9.513-10.283-11.336     c-8.728-2.496-17.456-2.622-26.184-0.379C12.358-92.608,7.651-87.92,7.651-82.639v15.262     c-11.232,2.632-21.773,7.05-31.299,12.962l-10.823-10.823c-3.457-3.457-9.493-3.961-15.286-0.743     c-7.938,4.406-14.198,10.488-18.784,18.246c-3.664,6.199-3.678,12.842,0.057,16.577l10.79,10.79     c-5.912,9.526-10.33,20.066-12.962,31.299h-15.309c-4.89,0-9.514,3.913-11.336,10.284c-2.495,8.728-2.623,17.456-0.379,26.184     c1.792,6.974,6.481,11.682,11.762,11.682h15.266c2.633,11.231,7.051,21.771,12.961,31.296l-10.826,10.826     c-3.457,3.457-3.96,9.493-0.743,15.286c4.406,7.937,10.489,14.198,18.246,18.784c6.199,3.664,12.843,3.678,16.577-0.057     l10.791-10.791c9.526,5.913,20.067,10.331,31.298,12.962v15.31c0,4.89,3.913,9.513,10.284,11.335     c8.728,2.496,17.456,2.623,26.184,0.38c6.974-1.793,11.681-6.481,11.681-11.762l0.001-15.267     c11.232-2.632,21.77-7.051,31.295-12.961l10.827,10.827c3.458,3.458,9.493,3.96,15.287,0.743     c7.937-4.406,14.198-10.489,18.784-18.246c3.664-6.199,3.678-12.843-0.057-16.578l-10.793-10.793     c5.911-9.525,10.329-20.063,12.961-31.295h15.313c4.89,0,9.513-3.913,11.336-10.284     C163.249,40.068,163.375,31.341,161.132,22.612z M31.712,113.218c-43.179,0-78.199-35.02-78.199-78.225     c0-43.178,35.02-78.199,78.199-78.199c43.205,0,78.225,35.02,78.225,78.199C109.938,78.198,74.918,113.218,31.712,113.218z"/>
			<path style="fill:#FFFFFF;" d="M31.726-29.633c-35.643,0-64.64,28.997-64.64,64.637c0,35.641,28.997,64.638,64.64,64.638     c35.641,0,64.638-28.997,64.638-64.638C96.364-0.636,67.367-29.633,31.726-29.633z M31.726,94.332     c-32.713,0-59.329-26.614-59.329-59.327c0-32.713,26.615-59.326,59.329-59.326S91.053,2.291,91.053,35.005     C91.053,67.718,64.439,94.332,31.726,94.332z"/>
		</g>
		<g style="clip-path:url(#SVGID_00000170989744377915032960000012686013515264792236_);">
			<path style="fill:#FFFFFF;" d="M2012.982,1033.96c-1.792-6.974-6.481-11.682-11.761-11.682h-15.263     c-2.631-11.232-7.049-21.772-12.962-31.298l10.824-10.824c3.457-3.457,3.96-9.493,0.743-15.286     c-4.406-7.938-10.488-14.198-18.246-18.784c-6.199-3.664-12.843-3.678-16.577,0.057l-10.794,10.794     c-9.525-5.911-20.064-10.329-31.296-12.961l-0.001-15.313c0-4.89-3.912-9.513-10.283-11.336     c-8.727-2.496-17.456-2.622-26.184-0.379c-6.975,1.792-11.682,6.481-11.682,11.762v15.262     c-11.232,2.632-21.772,7.05-31.299,12.962l-10.823-10.823c-3.457-3.457-9.493-3.961-15.286-0.743     c-7.938,4.406-14.198,10.488-18.784,18.246c-3.664,6.199-3.677,12.842,0.057,16.577l10.79,10.79     c-5.912,9.526-10.33,20.066-12.962,31.299h-15.309c-4.89,0-9.514,3.913-11.336,10.284c-2.496,8.728-2.623,17.456-0.379,26.184     c1.792,6.974,6.481,11.682,11.762,11.682h15.266c2.633,11.231,7.051,21.771,12.961,31.296l-10.827,10.827     c-3.457,3.457-3.96,9.493-0.743,15.286c4.406,7.937,10.489,14.198,18.246,18.784c6.199,3.664,12.843,3.678,16.577-0.057     l10.791-10.791c9.526,5.913,20.066,10.331,31.298,12.962v15.31c0,4.89,3.913,9.513,10.284,11.335     c8.728,2.496,17.456,2.623,26.184,0.38c6.974-1.793,11.681-6.481,11.681-11.761l0.001-15.267     c11.231-2.632,21.77-7.051,31.295-12.961l10.827,10.827c3.457,3.458,9.493,3.96,15.286,0.743     c7.937-4.406,14.198-10.489,18.784-18.246c3.664-6.199,3.678-12.843-0.057-16.578l-10.793-10.793     c5.911-9.525,10.329-20.063,12.961-31.295h15.313c4.89,0,9.513-3.913,11.336-10.284     C2015.099,1051.416,2015.225,1042.689,2012.982,1033.96z M1883.563,1124.566c-43.178,0-78.198-35.02-78.198-78.225     c0-43.179,35.02-78.199,78.198-78.199c43.205,0,78.225,35.02,78.225,78.199     C1961.788,1089.546,1926.768,1124.566,1883.563,1124.566z"/>
			<path style="fill:#FFFFFF;" d="M1883.576,981.715c-35.643,0-64.64,28.997-64.64,64.637c0,35.641,28.997,64.638,64.64,64.638     c35.641,0,64.638-28.997,64.638-64.638C1948.214,1010.712,1919.217,981.715,1883.576,981.715z M1883.576,1105.68     c-32.713,0-59.329-26.614-59.329-59.327c0-32.713,26.615-59.326,59.329-59.326s59.327,26.613,59.327,59.326     C1942.903,1079.066,1916.29,1105.68,1883.576,1105.68z"/>
		</g>
		<g style="clip-path:url(#SVGID_00000170989744377915032960000012686013515264792236_);">
			<path style="fill:#FFFFFF;" d="M1423.5,1006.818l-36.374-94.244c-7.001-18.141-7.668-38.517,0.026-56.374     c5.311-12.329,5.995-26.654,0.778-40.172c-6.049-15.672-18.668-26.837-33.49-31.558l10.167,37.523     c0.917,3.482,0.69,7.033-0.609,9.878c-4.378,9.361-11.39,15.903-19.689,19.106c-8.3,3.203-17.888,3.068-27.42-0.924     c-2.873-1.235-5.428-3.712-7.041-6.925l-17.725-34.606c-7.806,13.454-9.653,30.202-3.604,45.874     c5.218,13.518,15.348,23.669,27.565,29.232c17.697,8.058,30.892,23.599,37.894,41.74l36.374,94.243     c7.001,18.141,7.669,38.516-0.026,56.374c-5.312,12.329-5.996,26.654-0.779,40.172c6.049,15.672,18.668,26.837,33.49,31.559     l-10.167-37.523c-0.918-3.482-0.69-7.032,0.609-9.878c4.378-9.361,11.389-15.903,19.689-19.106     c8.299-3.203,17.888-3.068,27.42,0.924c2.874,1.235,5.428,3.712,7.041,6.925l17.725,34.607     c7.806-13.455,9.653-30.203,3.604-45.875c-5.217-13.518-15.348-23.67-27.566-29.232     C1443.697,1040.499,1430.502,1024.959,1423.5,1006.818z"/>
			<g>
				<path d="M1327.284,890.126c5.25,0.143,10.384-0.298,15.414-1.174c5.019-0.898,9.942-2.211,14.632-4.125      c1.207-0.391,2.333-0.979,3.488-1.497c1.15-0.529,2.334-0.995,3.426-1.643l3.36-1.801c0.572-0.284,1.07-0.686,1.615-1.016      l1.62-1.019c1.085-0.677,2.182-1.342,3.186-2.14l3.117-2.283l0.796-0.56l0.739-0.626c0.494-0.418,0.98-0.844,1.488-1.252      c1.004-0.828,2.018-1.656,3.074-2.46c-0.76,1.066-1.562,2.108-2.374,3.15c-0.4,0.527-0.821,1.035-1.236,1.552l-0.627,0.772      l-0.689,0.711c-1.891,1.838-3.689,3.835-5.862,5.383c-4.102,3.419-8.873,6.005-13.826,8.027      c-4.968,2.031-10.282,3.152-15.594,3.562C1337.728,892.078,1332.321,891.725,1327.284,890.126z"/>
			</g>
			<g>
				<path d="M1393.563,1066.524c3.093-4.579,7.185-8.457,11.651-11.757c1.137-0.799,2.245-1.655,3.44-2.371l3.59-2.152      c1.237-0.646,2.5-1.245,3.75-1.869c1.255-0.614,2.574-1.086,3.86-1.635c5.219-1.986,10.698-3.379,16.257-3.814l2.077-0.194      c0.689-0.086,1.384-0.104,2.082-0.08l4.161,0.055c1.382-0.006,2.76,0.226,4.129,0.396c1.37,0.187,2.732,0.381,4.082,0.621      c-1.379,0.154-2.745,0.261-4.104,0.361c-1.358,0.124-2.711,0.101-4.054,0.362c-2.687,0.368-5.36,0.618-7.983,1.218      c-5.283,0.916-10.394,2.511-15.372,4.38c-5.003,1.836-9.776,4.27-14.382,7.013      C1402.147,1059.825,1397.735,1062.944,1393.563,1066.524z"/>
			</g>
			<path d="M1414.441,1032.684L1414.441,1032.684c-3.76,1.451-7.983-0.421-9.434-4.18l-46.148-119.568     c-1.451-3.76,0.42-7.983,4.18-9.434l0,0c3.76-1.451,7.983,0.42,9.434,4.18l46.148,119.568     C1420.071,1027.009,1418.2,1031.233,1414.441,1032.684z"/>
			<path style="fill:#FFFFFF;" d="M1369.273,906.106c0.684,1.771-0.198,3.762-1.97,4.445c-1.771,0.684-3.762-0.198-4.445-1.97     c-0.684-1.771,0.198-3.761,1.97-4.445C1366.599,903.454,1368.589,904.335,1369.273,906.106z"/>
			<path style="fill:#FFFFFF;" d="M1414.382,1022.958c0.684,1.771-0.198,3.761-1.969,4.445c-1.771,0.684-3.762-0.198-4.446-1.97     c-0.684-1.771,0.199-3.761,1.97-4.445C1411.709,1020.305,1413.698,1021.187,1414.382,1022.958z"/>
		</g>
		<path style="clip-path:url(#SVGID_00000170989744377915032960000012686013515264792236_);fill:#ECB02A;" d="M1063.395,922.354    c-106.424,0-192.734,86.31-192.734,192.733c0,106.473,86.31,192.782,192.734,192.782c106.473,0,192.782-86.309,192.782-192.782    C1256.178,1008.663,1169.868,922.354,1063.395,922.354z M1063.395,1258.445c-79.129,0-143.308-64.179-143.308-143.358    c0-79.129,64.179-143.308,143.308-143.308c79.179,0,143.357,64.179,143.357,143.308    C1206.752,1194.266,1142.574,1258.445,1063.395,1258.445z"/>
		<path style="clip-path:url(#SVGID_00000170989744377915032960000012686013515264792236_);fill:#ECB02A;" d="M617.598-240.24    c-106.424,0-192.734,86.31-192.734,192.733c0,106.473,86.31,192.782,192.734,192.782c106.473,0,192.782-86.309,192.782-192.782    C810.381-153.93,724.071-240.24,617.598-240.24z M617.598,95.851c-79.129,0-143.309-64.179-143.309-143.358    c0-79.129,64.179-143.309,143.309-143.309c79.178,0,143.357,64.179,143.357,143.309C760.955,31.673,696.777,95.851,617.598,95.851    z"/>
	</g>
</g>
<g id="PHOTOS">
	<g>
		<defs>
			<rect id="SVGID_00000106828950009011219860000010288337436526873250_" width="1920" height="1080"/>
		</defs>
		<clipPath id="SVGID_00000168102846427139664310000015934006432647001757_">
			<use xlink:href="#SVGID_00000106828950009011219860000010288337436526873250_" style="overflow:visible;"/>
		</clipPath>
		<g style="clip-path:url(#SVGID_00000168102846427139664310000015934006432647001757_);">
			<defs>
				
					<ellipse id="SVGID_00000101093615706795115890000012784860199395482753_" transform="matrix(0.7071 -0.7071 0.7071 0.7071 -396.3931 446.7546)" cx="341.084" cy="701.866" rx="538.167" ry="538.167"/>
			</defs>
			<clipPath id="SVGID_00000113313836751622312370000013944439909312869789_">
				<use xlink:href="#SVGID_00000101093615706795115890000012784860199395482753_" style="overflow:visible;"/>
			</clipPath>
			<g style="clip-path:url(#SVGID_00000113313836751622312370000013944439909312869789_);">
				<g>
					<g>
						<rect x="-402.099" y="112.445" style="fill:#262625;" width="51.254" height="51.255"/>
						<rect x="-350.845" y="112.445" width="51.254" height="51.255"/>
					</g>
					<g>
						<rect x="-299.591" y="112.445" style="fill:#262625;" width="51.254" height="51.255"/>
						<rect x="-248.337" y="112.445" width="51.256" height="51.255"/>
					</g>
					<g>
						<rect x="-197.081" y="112.445" style="fill:#262625;" width="51.253" height="51.255"/>
						<rect x="-145.828" y="112.445" width="51.253" height="51.255"/>
					</g>
					<g>
						<rect x="-94.575" y="112.445" style="fill:#262625;" width="51.256" height="51.255"/>
						<rect x="-43.32" y="112.445" width="51.253" height="51.255"/>
					</g>
					<g>
						<rect x="7.933" y="112.445" style="fill:#262625;" width="51.254" height="51.255"/>
						<rect x="59.187" y="112.445" width="51.254" height="51.255"/>
					</g>
					<g>
						<rect x="110.441" y="112.445" style="fill:#262625;" width="51.255" height="51.255"/>
						<rect x="161.696" y="112.445" width="51.253" height="51.255"/>
					</g>
					<g>
						<rect x="212.949" y="112.445" style="fill:#262625;" width="51.256" height="51.255"/>
						<rect x="264.204" y="112.445" width="51.253" height="51.255"/>
					</g>
					<g>
						<rect x="315.457" y="112.445" style="fill:#262625;" width="51.254" height="51.255"/>
						<rect x="366.711" y="112.445" width="51.254" height="51.255"/>
					</g>
					<g>
						<rect x="417.965" y="112.445" style="fill:#262625;" width="51.254" height="51.255"/>
						<rect x="469.219" y="112.445" width="51.253" height="51.255"/>
					</g>
					<g>
						<rect x="520.473" y="112.445" style="fill:#262625;" width="51.254" height="51.255"/>
						<rect x="571.727" y="112.445" width="51.254" height="51.255"/>
					</g>
					<g>
						<rect x="622.981" y="112.445" style="fill:#262625;" width="51.254" height="51.255"/>
						<rect x="674.235" y="112.445" width="51.256" height="51.255"/>
					</g>
					<g>
						<rect x="725.491" y="112.445" style="fill:#262625;" width="51.253" height="51.255"/>
						<rect x="776.744" y="112.445" width="51.254" height="51.255"/>
					</g>
					<g>
						<rect x="827.998" y="112.445" style="fill:#262625;" width="51.254" height="51.255"/>
						<rect x="879.251" y="112.445" width="51.255" height="51.255"/>
					</g>
					<g>
						<rect x="930.506" y="112.445" style="fill:#262625;" width="51.253" height="51.255"/>
						<rect x="981.759" y="112.445" width="51.254" height="51.255"/>
					</g>
				</g>
				<g>
					<g>
						<rect x="-350.845" y="163.7" style="fill:#262625;" width="51.254" height="51.254"/>
						<rect x="-299.591" y="163.7" width="51.254" height="51.254"/>
					</g>
					<g>
						<rect x="-248.337" y="163.7" style="fill:#262625;" width="51.256" height="51.254"/>
						<rect x="-197.081" y="163.7" width="51.253" height="51.254"/>
					</g>
					<g>
						<rect x="-145.828" y="163.7" style="fill:#262625;" width="51.253" height="51.254"/>
						<rect x="-94.575" y="163.7" width="51.256" height="51.254"/>
					</g>
					<g>
						<rect x="-43.32" y="163.7" style="fill:#262625;" width="51.253" height="51.254"/>
						<rect x="7.933" y="163.7" width="51.254" height="51.254"/>
					</g>
					<g>
						<rect x="59.187" y="163.7" style="fill:#262625;" width="51.254" height="51.254"/>
						<rect x="110.441" y="163.7" width="51.255" height="51.254"/>
					</g>
					<g>
						<rect x="161.696" y="163.7" style="fill:#262625;" width="51.253" height="51.254"/>
						<rect x="212.949" y="163.7" width="51.256" height="51.254"/>
					</g>
					<g>
						<rect x="264.204" y="163.7" style="fill:#262625;" width="51.253" height="51.254"/>
						<rect x="315.457" y="163.7" width="51.254" height="51.254"/>
					</g>
					<g>
						<rect x="366.711" y="163.7" style="fill:#262625;" width="51.254" height="51.254"/>
						<rect x="417.965" y="163.7" width="51.254" height="51.254"/>
					</g>
					<g>
						<rect x="469.219" y="163.7" style="fill:#262625;" width="51.253" height="51.254"/>
						<rect x="520.473" y="163.7" width="51.254" height="51.254"/>
					</g>
					<g>
						<rect x="571.727" y="163.7" style="fill:#262625;" width="51.254" height="51.254"/>
						<rect x="622.981" y="163.7" width="51.254" height="51.254"/>
					</g>
					<g>
						<rect x="674.235" y="163.7" style="fill:#262625;" width="51.256" height="51.254"/>
						<rect x="725.491" y="163.7" width="51.253" height="51.254"/>
					</g>
					<g>
						<rect x="776.744" y="163.7" style="fill:#262625;" width="51.254" height="51.254"/>
						<rect x="827.998" y="163.7" width="51.254" height="51.254"/>
					</g>
					<g>
						<rect x="879.251" y="163.7" style="fill:#262625;" width="51.255" height="51.254"/>
						<rect x="930.506" y="163.7" width="51.253" height="51.254"/>
					</g>
					<g>
						<rect x="981.759" y="163.7" style="fill:#262625;" width="51.254" height="51.254"/>
						<rect x="1033.013" y="163.7" width="51.254" height="51.254"/>
					</g>
				</g>
				<g>
					<g>
						<rect x="-402.099" y="214.953" style="fill:#262625;" width="51.254" height="51.254"/>
						<rect x="-350.845" y="214.953" width="51.254" height="51.254"/>
					</g>
					<g>
						<rect x="-299.591" y="214.953" style="fill:#262625;" width="51.254" height="51.254"/>
						<rect x="-248.337" y="214.953" width="51.256" height="51.254"/>
					</g>
					<g>
						<rect x="-197.081" y="214.953" style="fill:#262625;" width="51.253" height="51.254"/>
						<rect x="-145.828" y="214.953" width="51.253" height="51.254"/>
					</g>
					<g>
						<rect x="-94.575" y="214.953" style="fill:#262625;" width="51.256" height="51.254"/>
						<rect x="-43.32" y="214.953" width="51.253" height="51.254"/>
					</g>
					<g>
						<rect x="7.933" y="214.953" style="fill:#262625;" width="51.254" height="51.254"/>
						<rect x="59.187" y="214.953" width="51.254" height="51.254"/>
					</g>
					<g>
						<rect x="110.441" y="214.953" style="fill:#262625;" width="51.255" height="51.254"/>
						<rect x="161.696" y="214.953" width="51.253" height="51.254"/>
					</g>
					<g>
						<rect x="212.949" y="214.953" style="fill:#262625;" width="51.256" height="51.254"/>
						<rect x="264.204" y="214.953" width="51.253" height="51.254"/>
					</g>
					<g>
						<rect x="315.457" y="214.953" style="fill:#262625;" width="51.254" height="51.254"/>
						<rect x="366.711" y="214.953" width="51.254" height="51.254"/>
					</g>
					<g>
						<rect x="417.965" y="214.953" style="fill:#262625;" width="51.254" height="51.254"/>
						<rect x="469.219" y="214.953" width="51.253" height="51.254"/>
					</g>
					<g>
						<rect x="520.473" y="214.953" style="fill:#262625;" width="51.254" height="51.254"/>
						<rect x="571.727" y="214.953" width="51.254" height="51.254"/>
					</g>
					<g>
						<rect x="622.981" y="214.953" style="fill:#262625;" width="51.254" height="51.254"/>
						<rect x="674.235" y="214.953" width="51.256" height="51.254"/>
					</g>
					<g>
						<rect x="725.491" y="214.953" style="fill:#262625;" width="51.253" height="51.254"/>
						<rect x="776.744" y="214.953" width="51.254" height="51.254"/>
					</g>
					<g>
						<rect x="827.998" y="214.953" style="fill:#262625;" width="51.254" height="51.254"/>
						<rect x="879.251" y="214.953" width="51.255" height="51.254"/>
					</g>
					<g>
						<rect x="930.506" y="214.953" style="fill:#262625;" width="51.253" height="51.254"/>
						<rect x="981.759" y="214.953" width="51.254" height="51.254"/>
					</g>
				</g>
				<g>
					<g>
						<rect x="-350.845" y="266.207" style="fill:#262625;" width="51.254" height="51.253"/>
						<rect x="-299.591" y="266.207" width="51.254" height="51.253"/>
					</g>
					<g>
						<rect x="-248.337" y="266.207" style="fill:#262625;" width="51.256" height="51.253"/>
						<rect x="-197.081" y="266.207" width="51.253" height="51.253"/>
					</g>
					<g>
						<rect x="-145.828" y="266.207" style="fill:#262625;" width="51.253" height="51.253"/>
						<rect x="-94.575" y="266.207" width="51.256" height="51.253"/>
					</g>
					<g>
						<rect x="-43.32" y="266.207" style="fill:#262625;" width="51.253" height="51.253"/>
						<rect x="7.933" y="266.207" width="51.254" height="51.253"/>
					</g>
					<g>
						<rect x="59.187" y="266.207" style="fill:#262625;" width="51.254" height="51.253"/>
						<rect x="110.441" y="266.207" width="51.255" height="51.253"/>
					</g>
					<g>
						<rect x="161.696" y="266.207" style="fill:#262625;" width="51.253" height="51.253"/>
						<rect x="212.949" y="266.207" width="51.256" height="51.253"/>
					</g>
					<g>
						<rect x="264.204" y="266.207" style="fill:#262625;" width="51.253" height="51.253"/>
						<rect x="315.457" y="266.207" width="51.254" height="51.253"/>
					</g>
					<g>
						<rect x="366.711" y="266.207" style="fill:#262625;" width="51.254" height="51.253"/>
						<rect x="417.965" y="266.207" width="51.254" height="51.253"/>
					</g>
					<g>
						<rect x="469.219" y="266.207" style="fill:#262625;" width="51.253" height="51.253"/>
						<rect x="520.473" y="266.207" width="51.254" height="51.253"/>
					</g>
					<g>
						<rect x="571.727" y="266.207" style="fill:#262625;" width="51.254" height="51.253"/>
						<rect x="622.981" y="266.207" width="51.254" height="51.253"/>
					</g>
					<g>
						<rect x="674.235" y="266.207" style="fill:#262625;" width="51.256" height="51.253"/>
						<rect x="725.491" y="266.207" width="51.253" height="51.253"/>
					</g>
					<g>
						<rect x="776.744" y="266.207" style="fill:#262625;" width="51.254" height="51.253"/>
						<rect x="827.998" y="266.207" width="51.254" height="51.253"/>
					</g>
					<g>
						<rect x="879.251" y="266.207" style="fill:#262625;" width="51.255" height="51.253"/>
						<rect x="930.506" y="266.207" width="51.253" height="51.253"/>
					</g>
					<g>
						<rect x="981.759" y="266.207" style="fill:#262625;" width="51.254" height="51.253"/>
						<rect x="1033.013" y="266.207" width="51.254" height="51.253"/>
					</g>
				</g>
				<g>
					<g>
						<rect x="-402.099" y="317.461" style="fill:#262625;" width="51.254" height="51.255"/>
						<rect x="-350.845" y="317.461" width="51.254" height="51.255"/>
					</g>
					<g>
						<rect x="-299.591" y="317.461" style="fill:#262625;" width="51.254" height="51.255"/>
						<rect x="-248.337" y="317.461" width="51.256" height="51.255"/>
					</g>
					<g>
						<rect x="-197.081" y="317.461" style="fill:#262625;" width="51.253" height="51.255"/>
						<rect x="-145.828" y="317.461" width="51.253" height="51.255"/>
					</g>
					<g>
						<rect x="-94.575" y="317.461" style="fill:#262625;" width="51.256" height="51.255"/>
						<rect x="-43.32" y="317.461" width="51.253" height="51.255"/>
					</g>
					<g>
						<rect x="7.933" y="317.461" style="fill:#262625;" width="51.254" height="51.255"/>
						<rect x="59.187" y="317.461" width="51.254" height="51.255"/>
					</g>
					<g>
						<rect x="110.441" y="317.461" style="fill:#262625;" width="51.255" height="51.255"/>
						<rect x="161.696" y="317.461" width="51.253" height="51.255"/>
					</g>
					<g>
						<rect x="212.949" y="317.461" style="fill:#262625;" width="51.256" height="51.255"/>
						<rect x="264.204" y="317.461" width="51.253" height="51.255"/>
					</g>
					<g>
						<rect x="315.457" y="317.461" style="fill:#262625;" width="51.254" height="51.255"/>
						<rect x="366.711" y="317.461" width="51.254" height="51.255"/>
					</g>
					<g>
						<rect x="417.965" y="317.461" style="fill:#262625;" width="51.254" height="51.255"/>
						<rect x="469.219" y="317.461" width="51.253" height="51.255"/>
					</g>
					<g>
						<rect x="520.473" y="317.461" style="fill:#262625;" width="51.254" height="51.255"/>
						<rect x="571.727" y="317.461" width="51.254" height="51.255"/>
					</g>
					<g>
						<rect x="622.981" y="317.461" style="fill:#262625;" width="51.254" height="51.255"/>
						<rect x="674.235" y="317.461" width="51.256" height="51.255"/>
					</g>
					<g>
						<rect x="725.491" y="317.461" style="fill:#262625;" width="51.253" height="51.255"/>
						<rect x="776.744" y="317.461" width="51.254" height="51.255"/>
					</g>
					<g>
						<rect x="827.998" y="317.461" style="fill:#262625;" width="51.254" height="51.255"/>
						<rect x="879.251" y="317.461" width="51.255" height="51.255"/>
					</g>
					<g>
						<rect x="930.506" y="317.461" style="fill:#262625;" width="51.253" height="51.255"/>
						<rect x="981.759" y="317.461" width="51.254" height="51.255"/>
					</g>
				</g>
				<g>
					<g>
						<rect x="-350.845" y="368.715" style="fill:#262625;" width="51.254" height="51.254"/>
						<rect x="-299.591" y="368.715" width="51.254" height="51.254"/>
					</g>
					<g>
						<rect x="-248.337" y="368.715" style="fill:#262625;" width="51.256" height="51.254"/>
						<rect x="-197.081" y="368.715" width="51.253" height="51.254"/>
					</g>
					<g>
						<rect x="-145.828" y="368.715" style="fill:#262625;" width="51.253" height="51.254"/>
						<rect x="-94.575" y="368.715" width="51.256" height="51.254"/>
					</g>
					<g>
						<rect x="-43.32" y="368.715" style="fill:#262625;" width="51.253" height="51.254"/>
						<rect x="7.933" y="368.715" width="51.254" height="51.254"/>
					</g>
					<g>
						<rect x="59.187" y="368.715" style="fill:#262625;" width="51.254" height="51.254"/>
						<rect x="110.441" y="368.715" width="51.255" height="51.254"/>
					</g>
					<g>
						<rect x="161.696" y="368.715" style="fill:#262625;" width="51.253" height="51.254"/>
						<rect x="212.949" y="368.715" width="51.256" height="51.254"/>
					</g>
					<g>
						<rect x="264.204" y="368.715" style="fill:#262625;" width="51.253" height="51.254"/>
						<rect x="315.457" y="368.715" width="51.254" height="51.254"/>
					</g>
					<g>
						<rect x="366.711" y="368.715" style="fill:#262625;" width="51.254" height="51.254"/>
						<rect x="417.965" y="368.715" width="51.254" height="51.254"/>
					</g>
					<g>
						<rect x="469.219" y="368.715" style="fill:#262625;" width="51.253" height="51.254"/>
						<rect x="520.473" y="368.715" width="51.254" height="51.254"/>
					</g>
					<g>
						<rect x="571.727" y="368.715" style="fill:#262625;" width="51.254" height="51.254"/>
						<rect x="622.981" y="368.715" width="51.254" height="51.254"/>
					</g>
					<g>
						<rect x="674.235" y="368.715" style="fill:#262625;" width="51.256" height="51.254"/>
						<rect x="725.491" y="368.715" width="51.253" height="51.254"/>
					</g>
					<g>
						<rect x="776.744" y="368.715" style="fill:#262625;" width="51.254" height="51.254"/>
						<rect x="827.998" y="368.715" width="51.254" height="51.254"/>
					</g>
					<g>
						<rect x="879.251" y="368.715" style="fill:#262625;" width="51.255" height="51.254"/>
						<rect x="930.506" y="368.715" width="51.253" height="51.254"/>
					</g>
					<g>
						<rect x="981.759" y="368.715" style="fill:#262625;" width="51.254" height="51.254"/>
						<rect x="1033.013" y="368.715" width="51.254" height="51.254"/>
					</g>
				</g>
				<g>
					<g>
						<rect x="-402.099" y="419.969" style="fill:#262625;" width="51.254" height="51.254"/>
						<rect x="-350.845" y="419.969" width="51.254" height="51.254"/>
					</g>
					<g>
						<rect x="-299.591" y="419.969" style="fill:#262625;" width="51.254" height="51.254"/>
						<rect x="-248.337" y="419.969" width="51.256" height="51.254"/>
					</g>
					<g>
						<rect x="-197.081" y="419.969" style="fill:#262625;" width="51.253" height="51.254"/>
						<rect x="-145.828" y="419.969" width="51.253" height="51.254"/>
					</g>
					<g>
						<rect x="-94.575" y="419.969" style="fill:#262625;" width="51.256" height="51.254"/>
						<rect x="-43.32" y="419.969" width="51.253" height="51.254"/>
					</g>
					<g>
						<rect x="7.933" y="419.969" style="fill:#262625;" width="51.254" height="51.254"/>
						<rect x="59.187" y="419.969" width="51.254" height="51.254"/>
					</g>
					<g>
						<rect x="110.441" y="419.969" style="fill:#262625;" width="51.255" height="51.254"/>
						<rect x="161.696" y="419.969" width="51.253" height="51.254"/>
					</g>
					<g>
						<rect x="212.949" y="419.969" style="fill:#262625;" width="51.256" height="51.254"/>
						<rect x="264.204" y="419.969" width="51.253" height="51.254"/>
					</g>
					<g>
						<rect x="315.457" y="419.969" style="fill:#262625;" width="51.254" height="51.254"/>
						<rect x="366.711" y="419.969" width="51.254" height="51.254"/>
					</g>
					<g>
						<rect x="417.965" y="419.969" style="fill:#262625;" width="51.254" height="51.254"/>
						<rect x="469.219" y="419.969" width="51.253" height="51.254"/>
					</g>
					<g>
						<rect x="520.473" y="419.969" style="fill:#262625;" width="51.254" height="51.254"/>
						<rect x="571.727" y="419.969" width="51.254" height="51.254"/>
					</g>
					<g>
						<rect x="622.981" y="419.969" style="fill:#262625;" width="51.254" height="51.254"/>
						<rect x="674.235" y="419.969" width="51.256" height="51.254"/>
					</g>
					<g>
						<rect x="725.491" y="419.969" style="fill:#262625;" width="51.253" height="51.254"/>
						<rect x="776.744" y="419.969" width="51.254" height="51.254"/>
					</g>
					<g>
						<rect x="827.998" y="419.969" style="fill:#262625;" width="51.254" height="51.254"/>
						<rect x="879.251" y="419.969" width="51.255" height="51.254"/>
					</g>
					<g>
						<rect x="930.506" y="419.969" style="fill:#262625;" width="51.253" height="51.254"/>
						<rect x="981.759" y="419.969" width="51.254" height="51.254"/>
					</g>
				</g>
				<g>
					<g>
						<rect x="-350.845" y="471.223" style="fill:#262625;" width="51.254" height="51.254"/>
						<rect x="-299.591" y="471.223" width="51.254" height="51.254"/>
					</g>
					<g>
						<rect x="-248.337" y="471.223" style="fill:#262625;" width="51.256" height="51.254"/>
						<rect x="-197.081" y="471.223" width="51.253" height="51.254"/>
					</g>
					<g>
						<rect x="-145.828" y="471.223" style="fill:#262625;" width="51.253" height="51.254"/>
						<rect x="-94.575" y="471.223" width="51.256" height="51.254"/>
					</g>
					<g>
						<rect x="-43.32" y="471.223" style="fill:#262625;" width="51.253" height="51.254"/>
						<rect x="7.933" y="471.223" width="51.254" height="51.254"/>
					</g>
					<g>
						<rect x="59.187" y="471.223" style="fill:#262625;" width="51.254" height="51.254"/>
						<rect x="110.441" y="471.223" width="51.255" height="51.254"/>
					</g>
					<g>
						<rect x="161.696" y="471.223" style="fill:#262625;" width="51.253" height="51.254"/>
						<rect x="212.949" y="471.223" width="51.256" height="51.254"/>
					</g>
					<g>
						<rect x="264.204" y="471.223" style="fill:#262625;" width="51.253" height="51.254"/>
						<rect x="315.457" y="471.223" width="51.254" height="51.254"/>
					</g>
					<g>
						<rect x="366.711" y="471.223" style="fill:#262625;" width="51.254" height="51.254"/>
						<rect x="417.965" y="471.223" width="51.254" height="51.254"/>
					</g>
					<g>
						<rect x="469.219" y="471.223" style="fill:#262625;" width="51.253" height="51.254"/>
						<rect x="520.473" y="471.223" width="51.254" height="51.254"/>
					</g>
					<g>
						<rect x="571.727" y="471.223" style="fill:#262625;" width="51.254" height="51.254"/>
						<rect x="622.981" y="471.223" width="51.254" height="51.254"/>
					</g>
					<g>
						<rect x="674.235" y="471.223" style="fill:#262625;" width="51.256" height="51.254"/>
						<rect x="725.491" y="471.223" width="51.253" height="51.254"/>
					</g>
					<g>
						<rect x="776.744" y="471.223" style="fill:#262625;" width="51.254" height="51.254"/>
						<rect x="827.998" y="471.223" width="51.254" height="51.254"/>
					</g>
					<g>
						<rect x="879.251" y="471.223" style="fill:#262625;" width="51.255" height="51.254"/>
						<rect x="930.506" y="471.223" width="51.253" height="51.254"/>
					</g>
					<g>
						<rect x="981.759" y="471.223" style="fill:#262625;" width="51.254" height="51.254"/>
						<rect x="1033.013" y="471.223" width="51.254" height="51.254"/>
					</g>
				</g>
				<g>
					<g>
						<rect x="-402.099" y="522.477" style="fill:#262625;" width="51.254" height="51.254"/>
						<rect x="-350.845" y="522.477" width="51.254" height="51.254"/>
					</g>
					<g>
						<rect x="-299.591" y="522.477" style="fill:#262625;" width="51.254" height="51.254"/>
						<rect x="-248.337" y="522.477" width="51.256" height="51.254"/>
					</g>
					<g>
						<rect x="-197.081" y="522.477" style="fill:#262625;" width="51.253" height="51.254"/>
						<rect x="-145.828" y="522.477" width="51.253" height="51.254"/>
					</g>
					<g>
						<rect x="-94.575" y="522.477" style="fill:#262625;" width="51.256" height="51.254"/>
						<rect x="-43.32" y="522.477" width="51.253" height="51.254"/>
					</g>
					<g>
						<rect x="7.933" y="522.477" style="fill:#262625;" width="51.254" height="51.254"/>
						<rect x="59.187" y="522.477" width="51.254" height="51.254"/>
					</g>
					<g>
						<rect x="110.441" y="522.477" style="fill:#262625;" width="51.255" height="51.254"/>
						<rect x="161.696" y="522.477" width="51.253" height="51.254"/>
					</g>
					<g>
						<rect x="212.949" y="522.477" style="fill:#262625;" width="51.256" height="51.254"/>
						<rect x="264.204" y="522.477" width="51.253" height="51.254"/>
					</g>
					<g>
						<rect x="315.457" y="522.477" style="fill:#262625;" width="51.254" height="51.254"/>
						<rect x="366.711" y="522.477" width="51.254" height="51.254"/>
					</g>
					<g>
						<rect x="417.965" y="522.477" style="fill:#262625;" width="51.254" height="51.254"/>
						<rect x="469.219" y="522.477" width="51.253" height="51.254"/>
					</g>
					<g>
						<rect x="520.473" y="522.477" style="fill:#262625;" width="51.254" height="51.254"/>
						<rect x="571.727" y="522.477" width="51.254" height="51.254"/>
					</g>
					<g>
						<rect x="622.981" y="522.477" style="fill:#262625;" width="51.254" height="51.254"/>
						<rect x="674.235" y="522.477" width="51.256" height="51.254"/>
					</g>
					<g>
						<rect x="725.491" y="522.477" style="fill:#262625;" width="51.253" height="51.254"/>
						<rect x="776.744" y="522.477" width="51.254" height="51.254"/>
					</g>
					<g>
						<rect x="827.998" y="522.477" style="fill:#262625;" width="51.254" height="51.254"/>
						<rect x="879.251" y="522.477" width="51.255" height="51.254"/>
					</g>
					<g>
						<rect x="930.506" y="522.477" style="fill:#262625;" width="51.253" height="51.254"/>
						<rect x="981.759" y="522.477" width="51.254" height="51.254"/>
					</g>
				</g>
				<g>
					<g>
						<rect x="-350.845" y="573.731" style="fill:#262625;" width="51.254" height="51.254"/>
						<rect x="-299.591" y="573.731" width="51.254" height="51.254"/>
					</g>
					<g>
						<rect x="-248.337" y="573.731" style="fill:#262625;" width="51.256" height="51.254"/>
						<rect x="-197.081" y="573.731" width="51.253" height="51.254"/>
					</g>
					<g>
						<rect x="-145.828" y="573.731" style="fill:#262625;" width="51.253" height="51.254"/>
						<rect x="-94.575" y="573.731" width="51.256" height="51.254"/>
					</g>
					<g>
						<rect x="-43.32" y="573.731" style="fill:#262625;" width="51.253" height="51.254"/>
						<rect x="7.933" y="573.731" width="51.254" height="51.254"/>
					</g>
					<g>
						<rect x="59.187" y="573.731" style="fill:#262625;" width="51.254" height="51.254"/>
						<rect x="110.441" y="573.731" width="51.255" height="51.254"/>
					</g>
					<g>
						<rect x="161.696" y="573.731" style="fill:#262625;" width="51.253" height="51.254"/>
						<rect x="212.949" y="573.731" width="51.256" height="51.254"/>
					</g>
					<g>
						<rect x="264.204" y="573.731" style="fill:#262625;" width="51.253" height="51.254"/>
						<rect x="315.457" y="573.731" width="51.254" height="51.254"/>
					</g>
					<g>
						<rect x="366.711" y="573.731" style="fill:#262625;" width="51.254" height="51.254"/>
						<rect x="417.965" y="573.731" width="51.254" height="51.254"/>
					</g>
					<g>
						<rect x="469.219" y="573.731" style="fill:#262625;" width="51.253" height="51.254"/>
						<rect x="520.473" y="573.731" width="51.254" height="51.254"/>
					</g>
					<g>
						<rect x="571.727" y="573.731" style="fill:#262625;" width="51.254" height="51.254"/>
						<rect x="622.981" y="573.731" width="51.254" height="51.254"/>
					</g>
					<g>
						<rect x="674.235" y="573.731" style="fill:#262625;" width="51.256" height="51.254"/>
						<rect x="725.491" y="573.731" width="51.253" height="51.254"/>
					</g>
					<g>
						<rect x="776.744" y="573.731" style="fill:#262625;" width="51.254" height="51.254"/>
						<rect x="827.998" y="573.731" width="51.254" height="51.254"/>
					</g>
					<g>
						<rect x="879.251" y="573.731" style="fill:#262625;" width="51.255" height="51.254"/>
						<rect x="930.506" y="573.731" width="51.253" height="51.254"/>
					</g>
					<g>
						<rect x="981.759" y="573.731" style="fill:#262625;" width="51.254" height="51.254"/>
						<rect x="1033.013" y="573.731" width="51.254" height="51.254"/>
					</g>
				</g>
				<g>
					<g>
						<rect x="-402.099" y="624.985" style="fill:#262625;" width="51.254" height="51.253"/>
						<rect x="-350.845" y="624.985" width="51.254" height="51.253"/>
					</g>
					<g>
						<rect x="-299.591" y="624.985" style="fill:#262625;" width="51.254" height="51.253"/>
						<rect x="-248.337" y="624.985" width="51.256" height="51.253"/>
					</g>
					<g>
						<rect x="-197.081" y="624.985" style="fill:#262625;" width="51.253" height="51.253"/>
						<rect x="-145.828" y="624.985" width="51.253" height="51.253"/>
					</g>
					<g>
						<rect x="-94.575" y="624.985" style="fill:#262625;" width="51.256" height="51.253"/>
						<rect x="-43.32" y="624.985" width="51.253" height="51.253"/>
					</g>
					<g>
						<rect x="7.933" y="624.985" style="fill:#262625;" width="51.254" height="51.253"/>
						<rect x="59.187" y="624.985" width="51.254" height="51.253"/>
					</g>
					<g>
						<rect x="110.441" y="624.985" style="fill:#262625;" width="51.255" height="51.253"/>
						<rect x="161.696" y="624.985" width="51.253" height="51.253"/>
					</g>
					<g>
						<rect x="212.949" y="624.985" style="fill:#262625;" width="51.256" height="51.253"/>
						<rect x="264.204" y="624.985" width="51.253" height="51.253"/>
					</g>
					<g>
						<rect x="315.457" y="624.985" style="fill:#262625;" width="51.254" height="51.253"/>
						<rect x="366.711" y="624.985" width="51.254" height="51.253"/>
					</g>
					<g>
						<rect x="417.965" y="624.985" style="fill:#262625;" width="51.254" height="51.253"/>
						<rect x="469.219" y="624.985" width="51.253" height="51.253"/>
					</g>
					<g>
						<rect x="520.473" y="624.985" style="fill:#262625;" width="51.254" height="51.253"/>
						<rect x="571.727" y="624.985" width="51.254" height="51.253"/>
					</g>
					<g>
						<rect x="622.981" y="624.985" style="fill:#262625;" width="51.254" height="51.253"/>
						<rect x="674.235" y="624.985" width="51.256" height="51.253"/>
					</g>
					<g>
						<rect x="725.491" y="624.985" style="fill:#262625;" width="51.253" height="51.253"/>
						<rect x="776.744" y="624.985" width="51.254" height="51.253"/>
					</g>
					<g>
						<rect x="827.998" y="624.985" style="fill:#262625;" width="51.254" height="51.253"/>
						<rect x="879.251" y="624.985" width="51.255" height="51.253"/>
					</g>
					<g>
						<rect x="930.506" y="624.985" style="fill:#262625;" width="51.253" height="51.253"/>
						<rect x="981.759" y="624.985" width="51.254" height="51.253"/>
					</g>
				</g>
				<g>
					<g>
						<rect x="-350.845" y="676.239" style="fill:#262625;" width="51.254" height="51.255"/>
						<rect x="-299.591" y="676.239" width="51.254" height="51.255"/>
					</g>
					<g>
						<rect x="-248.337" y="676.239" style="fill:#262625;" width="51.256" height="51.255"/>
						<rect x="-197.081" y="676.239" width="51.253" height="51.255"/>
					</g>
					<g>
						<rect x="-145.828" y="676.239" style="fill:#262625;" width="51.253" height="51.255"/>
						<rect x="-94.575" y="676.239" width="51.256" height="51.255"/>
					</g>
					<g>
						<rect x="-43.32" y="676.239" style="fill:#262625;" width="51.253" height="51.255"/>
						<rect x="7.933" y="676.239" width="51.254" height="51.255"/>
					</g>
					<g>
						<rect x="59.187" y="676.239" style="fill:#262625;" width="51.254" height="51.255"/>
						<rect x="110.441" y="676.239" width="51.255" height="51.255"/>
					</g>
					<g>
						<rect x="161.696" y="676.239" style="fill:#262625;" width="51.253" height="51.255"/>
						<rect x="212.949" y="676.239" width="51.256" height="51.255"/>
					</g>
					<g>
						<rect x="264.204" y="676.239" style="fill:#262625;" width="51.253" height="51.255"/>
						<rect x="315.457" y="676.239" width="51.254" height="51.255"/>
					</g>
					<g>
						<rect x="366.711" y="676.239" style="fill:#262625;" width="51.254" height="51.255"/>
						<rect x="417.965" y="676.239" width="51.254" height="51.255"/>
					</g>
					<g>
						<rect x="469.219" y="676.239" style="fill:#262625;" width="51.253" height="51.255"/>
						<rect x="520.473" y="676.239" width="51.254" height="51.255"/>
					</g>
					<g>
						<rect x="571.727" y="676.239" style="fill:#262625;" width="51.254" height="51.255"/>
						<rect x="622.981" y="676.239" width="51.254" height="51.255"/>
					</g>
					<g>
						<rect x="674.235" y="676.239" style="fill:#262625;" width="51.256" height="51.255"/>
						<rect x="725.491" y="676.239" width="51.253" height="51.255"/>
					</g>
					<g>
						<rect x="776.744" y="676.239" style="fill:#262625;" width="51.254" height="51.255"/>
						<rect x="827.998" y="676.239" width="51.254" height="51.255"/>
					</g>
					<g>
						<rect x="879.251" y="676.239" style="fill:#262625;" width="51.255" height="51.255"/>
						<rect x="930.506" y="676.239" width="51.253" height="51.255"/>
					</g>
					<g>
						<rect x="981.759" y="676.239" style="fill:#262625;" width="51.254" height="51.255"/>
						<rect x="1033.013" y="676.239" width="51.254" height="51.255"/>
					</g>
				</g>
				<g>
					<g>
						<rect x="-402.099" y="727.494" style="fill:#262625;" width="51.254" height="51.253"/>
						<rect x="-350.845" y="727.494" width="51.254" height="51.253"/>
					</g>
					<g>
						<rect x="-299.591" y="727.494" style="fill:#262625;" width="51.254" height="51.253"/>
						<rect x="-248.337" y="727.494" width="51.256" height="51.253"/>
					</g>
					<g>
						<rect x="-197.081" y="727.494" style="fill:#262625;" width="51.253" height="51.253"/>
						<rect x="-145.828" y="727.494" width="51.253" height="51.253"/>
					</g>
					<g>
						<rect x="-94.575" y="727.494" style="fill:#262625;" width="51.256" height="51.253"/>
						<rect x="-43.32" y="727.494" width="51.253" height="51.253"/>
					</g>
					<g>
						<rect x="7.933" y="727.494" style="fill:#262625;" width="51.254" height="51.253"/>
						<rect x="59.187" y="727.494" width="51.254" height="51.253"/>
					</g>
					<g>
						<rect x="110.441" y="727.494" style="fill:#262625;" width="51.255" height="51.253"/>
						<rect x="161.696" y="727.494" width="51.253" height="51.253"/>
					</g>
					<g>
						<rect x="212.949" y="727.494" style="fill:#262625;" width="51.256" height="51.253"/>
						<rect x="264.204" y="727.494" width="51.253" height="51.253"/>
					</g>
					<g>
						<rect x="315.457" y="727.494" style="fill:#262625;" width="51.254" height="51.253"/>
						<rect x="366.711" y="727.494" width="51.254" height="51.253"/>
					</g>
					<g>
						<rect x="417.965" y="727.494" style="fill:#262625;" width="51.254" height="51.253"/>
						<rect x="469.219" y="727.494" width="51.253" height="51.253"/>
					</g>
					<g>
						<rect x="520.473" y="727.494" style="fill:#262625;" width="51.254" height="51.253"/>
						<rect x="571.727" y="727.494" width="51.254" height="51.253"/>
					</g>
					<g>
						<rect x="622.981" y="727.494" style="fill:#262625;" width="51.254" height="51.253"/>
						<rect x="674.235" y="727.494" width="51.256" height="51.253"/>
					</g>
					<g>
						<rect x="725.491" y="727.494" style="fill:#262625;" width="51.253" height="51.253"/>
						<rect x="776.744" y="727.494" width="51.254" height="51.253"/>
					</g>
					<g>
						<rect x="827.998" y="727.494" style="fill:#262625;" width="51.254" height="51.253"/>
						<rect x="879.251" y="727.494" width="51.255" height="51.253"/>
					</g>
					<g>
						<rect x="930.506" y="727.494" style="fill:#262625;" width="51.253" height="51.253"/>
						<rect x="981.759" y="727.494" width="51.254" height="51.253"/>
					</g>
				</g>
				<g>
					<g>
						<rect x="-350.845" y="778.747" style="fill:#262625;" width="51.254" height="51.255"/>
						<rect x="-299.591" y="778.747" width="51.254" height="51.255"/>
					</g>
					<g>
						<rect x="-248.337" y="778.747" style="fill:#262625;" width="51.256" height="51.255"/>
						<rect x="-197.081" y="778.747" width="51.253" height="51.255"/>
					</g>
					<g>
						<rect x="-145.828" y="778.747" style="fill:#262625;" width="51.253" height="51.255"/>
						<rect x="-94.575" y="778.747" width="51.256" height="51.255"/>
					</g>
					<g>
						<rect x="-43.32" y="778.747" style="fill:#262625;" width="51.253" height="51.255"/>
						<rect x="7.933" y="778.747" width="51.254" height="51.255"/>
					</g>
					<g>
						<rect x="59.187" y="778.747" style="fill:#262625;" width="51.254" height="51.255"/>
						<rect x="110.441" y="778.747" width="51.255" height="51.255"/>
					</g>
					<g>
						<rect x="161.696" y="778.747" style="fill:#262625;" width="51.253" height="51.255"/>
						<rect x="212.949" y="778.747" width="51.256" height="51.255"/>
					</g>
					<g>
						<rect x="264.204" y="778.747" style="fill:#262625;" width="51.253" height="51.255"/>
						<rect x="315.457" y="778.747" width="51.254" height="51.255"/>
					</g>
					<g>
						<rect x="366.711" y="778.747" style="fill:#262625;" width="51.254" height="51.255"/>
						<rect x="417.965" y="778.747" width="51.254" height="51.255"/>
					</g>
					<g>
						<rect x="469.219" y="778.747" style="fill:#262625;" width="51.253" height="51.255"/>
						<rect x="520.473" y="778.747" width="51.254" height="51.255"/>
					</g>
					<g>
						<rect x="571.727" y="778.747" style="fill:#262625;" width="51.254" height="51.255"/>
						<rect x="622.981" y="778.747" width="51.254" height="51.255"/>
					</g>
					<g>
						<rect x="674.235" y="778.747" style="fill:#262625;" width="51.256" height="51.255"/>
						<rect x="725.491" y="778.747" width="51.253" height="51.255"/>
					</g>
					<g>
						<rect x="776.744" y="778.747" style="fill:#262625;" width="51.254" height="51.255"/>
						<rect x="827.998" y="778.747" width="51.254" height="51.255"/>
					</g>
					<g>
						<rect x="879.251" y="778.747" style="fill:#262625;" width="51.255" height="51.255"/>
						<rect x="930.506" y="778.747" width="51.253" height="51.255"/>
					</g>
					<g>
						<rect x="981.759" y="778.747" style="fill:#262625;" width="51.254" height="51.255"/>
						<rect x="1033.013" y="778.747" width="51.254" height="51.255"/>
					</g>
				</g>
				<g>
					<g>
						<rect x="-402.099" y="830.002" style="fill:#262625;" width="51.254" height="51.254"/>
						<rect x="-350.845" y="830.002" width="51.254" height="51.254"/>
					</g>
					<g>
						<rect x="-299.591" y="830.002" style="fill:#262625;" width="51.254" height="51.254"/>
						<rect x="-248.337" y="830.002" width="51.256" height="51.254"/>
					</g>
					<g>
						<rect x="-197.081" y="830.002" style="fill:#262625;" width="51.253" height="51.254"/>
						<rect x="-145.828" y="830.002" width="51.253" height="51.254"/>
					</g>
					<g>
						<rect x="-94.575" y="830.002" style="fill:#262625;" width="51.256" height="51.254"/>
						<rect x="-43.32" y="830.002" width="51.253" height="51.254"/>
					</g>
					<g>
						<rect x="7.933" y="830.002" style="fill:#262625;" width="51.254" height="51.254"/>
						<rect x="59.187" y="830.002" width="51.254" height="51.254"/>
					</g>
					<g>
						<rect x="110.441" y="830.002" style="fill:#262625;" width="51.255" height="51.254"/>
						<rect x="161.696" y="830.002" width="51.253" height="51.254"/>
					</g>
					<g>
						<rect x="212.949" y="830.002" style="fill:#262625;" width="51.256" height="51.254"/>
						<rect x="264.204" y="830.002" width="51.253" height="51.254"/>
					</g>
					<g>
						<rect x="315.457" y="830.002" style="fill:#262625;" width="51.254" height="51.254"/>
						<rect x="366.711" y="830.002" width="51.254" height="51.254"/>
					</g>
					<g>
						<rect x="417.965" y="830.002" style="fill:#262625;" width="51.254" height="51.254"/>
						<rect x="469.219" y="830.002" width="51.253" height="51.254"/>
					</g>
					<g>
						<rect x="520.473" y="830.002" style="fill:#262625;" width="51.254" height="51.254"/>
						<rect x="571.727" y="830.002" width="51.254" height="51.254"/>
					</g>
					<g>
						<rect x="622.981" y="830.002" style="fill:#262625;" width="51.254" height="51.254"/>
						<rect x="674.235" y="830.002" width="51.256" height="51.254"/>
					</g>
					<g>
						<rect x="725.491" y="830.002" style="fill:#262625;" width="51.253" height="51.254"/>
						<rect x="776.744" y="830.002" width="51.254" height="51.254"/>
					</g>
					<g>
						<rect x="827.998" y="830.002" style="fill:#262625;" width="51.254" height="51.254"/>
						<rect x="879.251" y="830.002" width="51.255" height="51.254"/>
					</g>
					<g>
						<rect x="930.506" y="830.002" style="fill:#262625;" width="51.253" height="51.254"/>
						<rect x="981.759" y="830.002" width="51.254" height="51.254"/>
					</g>
				</g>
				<g>
					<g>
						<rect x="-350.845" y="881.255" style="fill:#262625;" width="51.254" height="51.254"/>
						<rect x="-299.591" y="881.255" width="51.254" height="51.254"/>
					</g>
					<g>
						<rect x="-248.337" y="881.255" style="fill:#262625;" width="51.256" height="51.254"/>
						<rect x="-197.081" y="881.255" width="51.253" height="51.254"/>
					</g>
					<g>
						<rect x="-145.828" y="881.255" style="fill:#262625;" width="51.253" height="51.254"/>
						<rect x="-94.575" y="881.255" width="51.256" height="51.254"/>
					</g>
					<g>
						<rect x="-43.32" y="881.255" style="fill:#262625;" width="51.253" height="51.254"/>
						<rect x="7.933" y="881.255" width="51.254" height="51.254"/>
					</g>
					<g>
						<rect x="59.187" y="881.255" style="fill:#262625;" width="51.254" height="51.254"/>
						<rect x="110.441" y="881.255" width="51.255" height="51.254"/>
					</g>
					<g>
						<rect x="161.696" y="881.255" style="fill:#262625;" width="51.253" height="51.254"/>
						<rect x="212.949" y="881.255" width="51.256" height="51.254"/>
					</g>
					<g>
						<rect x="264.204" y="881.255" style="fill:#262625;" width="51.253" height="51.254"/>
						<rect x="315.457" y="881.255" width="51.254" height="51.254"/>
					</g>
					<g>
						<rect x="366.711" y="881.255" style="fill:#262625;" width="51.254" height="51.254"/>
						<rect x="417.965" y="881.255" width="51.254" height="51.254"/>
					</g>
					<g>
						<rect x="469.219" y="881.255" style="fill:#262625;" width="51.253" height="51.254"/>
						<rect x="520.473" y="881.255" width="51.254" height="51.254"/>
					</g>
					<g>
						<rect x="571.727" y="881.255" style="fill:#262625;" width="51.254" height="51.254"/>
						<rect x="622.981" y="881.255" width="51.254" height="51.254"/>
					</g>
					<g>
						<rect x="674.235" y="881.255" style="fill:#262625;" width="51.256" height="51.254"/>
						<rect x="725.491" y="881.255" width="51.253" height="51.254"/>
					</g>
					<g>
						<rect x="776.744" y="881.255" style="fill:#262625;" width="51.254" height="51.254"/>
						<rect x="827.998" y="881.255" width="51.254" height="51.254"/>
					</g>
					<g>
						<rect x="879.251" y="881.255" style="fill:#262625;" width="51.255" height="51.254"/>
						<rect x="930.506" y="881.255" width="51.253" height="51.254"/>
					</g>
					<g>
						<rect x="981.759" y="881.255" style="fill:#262625;" width="51.254" height="51.254"/>
						<rect x="1033.013" y="881.255" width="51.254" height="51.254"/>
					</g>
				</g>
				<g>
					<g>
						<rect x="-402.099" y="932.509" style="fill:#262625;" width="51.254" height="51.254"/>
						<rect x="-350.845" y="932.509" width="51.254" height="51.254"/>
					</g>
					<g>
						<rect x="-299.591" y="932.509" style="fill:#262625;" width="51.254" height="51.254"/>
						<rect x="-248.337" y="932.509" width="51.256" height="51.254"/>
					</g>
					<g>
						<rect x="-197.081" y="932.509" style="fill:#262625;" width="51.253" height="51.254"/>
						<rect x="-145.828" y="932.509" width="51.253" height="51.254"/>
					</g>
					<g>
						<rect x="-94.575" y="932.509" style="fill:#262625;" width="51.256" height="51.254"/>
						<rect x="-43.32" y="932.509" width="51.253" height="51.254"/>
					</g>
					<g>
						<rect x="7.933" y="932.509" style="fill:#262625;" width="51.254" height="51.254"/>
						<rect x="59.187" y="932.509" width="51.254" height="51.254"/>
					</g>
					<g>
						<rect x="110.441" y="932.509" style="fill:#262625;" width="51.255" height="51.254"/>
						<rect x="161.696" y="932.509" width="51.253" height="51.254"/>
					</g>
					<g>
						<rect x="212.949" y="932.509" style="fill:#262625;" width="51.256" height="51.254"/>
						<rect x="264.204" y="932.509" width="51.253" height="51.254"/>
					</g>
					<g>
						<rect x="315.457" y="932.509" style="fill:#262625;" width="51.254" height="51.254"/>
						<rect x="366.711" y="932.509" width="51.254" height="51.254"/>
					</g>
					<g>
						<rect x="417.965" y="932.509" style="fill:#262625;" width="51.254" height="51.254"/>
						<rect x="469.219" y="932.509" width="51.253" height="51.254"/>
					</g>
					<g>
						<rect x="520.473" y="932.509" style="fill:#262625;" width="51.254" height="51.254"/>
						<rect x="571.727" y="932.509" width="51.254" height="51.254"/>
					</g>
					<g>
						<rect x="622.981" y="932.509" style="fill:#262625;" width="51.254" height="51.254"/>
						<rect x="674.235" y="932.509" width="51.256" height="51.254"/>
					</g>
					<g>
						<rect x="725.491" y="932.509" style="fill:#262625;" width="51.253" height="51.254"/>
						<rect x="776.744" y="932.509" width="51.254" height="51.254"/>
					</g>
					<g>
						<rect x="827.998" y="932.509" style="fill:#262625;" width="51.254" height="51.254"/>
						<rect x="879.251" y="932.509" width="51.255" height="51.254"/>
					</g>
					<g>
						<rect x="930.506" y="932.509" style="fill:#262625;" width="51.253" height="51.254"/>
						<rect x="981.759" y="932.509" width="51.254" height="51.254"/>
					</g>
				</g>
				<g>
					<g>
						<rect x="-350.845" y="983.763" style="fill:#262625;" width="51.254" height="51.254"/>
						<rect x="-299.591" y="983.763" width="51.254" height="51.254"/>
					</g>
					<g>
						<rect x="-248.337" y="983.763" style="fill:#262625;" width="51.256" height="51.254"/>
						<rect x="-197.081" y="983.763" width="51.253" height="51.254"/>
					</g>
					<g>
						<rect x="-145.828" y="983.763" style="fill:#262625;" width="51.253" height="51.254"/>
						<rect x="-94.575" y="983.763" width="51.256" height="51.254"/>
					</g>
					<g>
						<rect x="-43.32" y="983.763" style="fill:#262625;" width="51.253" height="51.254"/>
						<rect x="7.933" y="983.763" width="51.254" height="51.254"/>
					</g>
					<g>
						<rect x="59.187" y="983.763" style="fill:#262625;" width="51.254" height="51.254"/>
						<rect x="110.441" y="983.763" width="51.255" height="51.254"/>
					</g>
					<g>
						<rect x="161.696" y="983.763" style="fill:#262625;" width="51.253" height="51.254"/>
						<rect x="212.949" y="983.763" width="51.256" height="51.254"/>
					</g>
					<g>
						<rect x="264.204" y="983.763" style="fill:#262625;" width="51.253" height="51.254"/>
						<rect x="315.457" y="983.763" width="51.254" height="51.254"/>
					</g>
					<g>
						<rect x="366.711" y="983.763" style="fill:#262625;" width="51.254" height="51.254"/>
						<rect x="417.965" y="983.763" width="51.254" height="51.254"/>
					</g>
					<g>
						<rect x="469.219" y="983.763" style="fill:#262625;" width="51.253" height="51.254"/>
						<rect x="520.473" y="983.763" width="51.254" height="51.254"/>
					</g>
					<g>
						<rect x="571.727" y="983.763" style="fill:#262625;" width="51.254" height="51.254"/>
						<rect x="622.981" y="983.763" width="51.254" height="51.254"/>
					</g>
					<g>
						<rect x="674.235" y="983.763" style="fill:#262625;" width="51.256" height="51.254"/>
						<rect x="725.491" y="983.763" width="51.253" height="51.254"/>
					</g>
					<g>
						<rect x="776.744" y="983.763" style="fill:#262625;" width="51.254" height="51.254"/>
						<rect x="827.998" y="983.763" width="51.254" height="51.254"/>
					</g>
					<g>
						<rect x="879.251" y="983.763" style="fill:#262625;" width="51.255" height="51.254"/>
						<rect x="930.506" y="983.763" width="51.253" height="51.254"/>
					</g>
					<g>
						<rect x="981.759" y="983.763" style="fill:#262625;" width="51.254" height="51.254"/>
						<rect x="1033.013" y="983.763" width="51.254" height="51.254"/>
					</g>
				</g>
				<g>
					<g>
						<rect x="-402.099" y="1035.017" style="fill:#262625;" width="51.254" height="51.255"/>
						<rect x="-350.845" y="1035.017" width="51.254" height="51.255"/>
					</g>
					<g>
						<rect x="-299.591" y="1035.017" style="fill:#262625;" width="51.254" height="51.255"/>
						<rect x="-248.337" y="1035.017" width="51.256" height="51.255"/>
					</g>
					<g>
						<rect x="-197.081" y="1035.017" style="fill:#262625;" width="51.253" height="51.255"/>
						<rect x="-145.828" y="1035.017" width="51.253" height="51.255"/>
					</g>
					<g>
						<rect x="-94.575" y="1035.017" style="fill:#262625;" width="51.256" height="51.255"/>
						<rect x="-43.32" y="1035.017" width="51.253" height="51.255"/>
					</g>
					<g>
						<rect x="7.933" y="1035.017" style="fill:#262625;" width="51.254" height="51.255"/>
						<rect x="59.187" y="1035.017" width="51.254" height="51.255"/>
					</g>
					<g>
						<rect x="110.441" y="1035.017" style="fill:#262625;" width="51.255" height="51.255"/>
						<rect x="161.696" y="1035.017" width="51.253" height="51.255"/>
					</g>
					<g>
						<rect x="212.949" y="1035.017" style="fill:#262625;" width="51.256" height="51.255"/>
						<rect x="264.204" y="1035.017" width="51.253" height="51.255"/>
					</g>
					<g>
						<rect x="315.457" y="1035.017" style="fill:#262625;" width="51.254" height="51.255"/>
						<rect x="366.711" y="1035.017" width="51.254" height="51.255"/>
					</g>
					<g>
						<rect x="417.965" y="1035.017" style="fill:#262625;" width="51.254" height="51.255"/>
						<rect x="469.219" y="1035.017" width="51.253" height="51.255"/>
					</g>
					<g>
						<rect x="520.473" y="1035.017" style="fill:#262625;" width="51.254" height="51.255"/>
						<rect x="571.727" y="1035.017" width="51.254" height="51.255"/>
					</g>
					<g>
						<rect x="622.981" y="1035.017" style="fill:#262625;" width="51.254" height="51.255"/>
						<rect x="674.235" y="1035.017" width="51.256" height="51.255"/>
					</g>
					<g>
						<rect x="725.491" y="1035.017" style="fill:#262625;" width="51.253" height="51.255"/>
						<rect x="776.744" y="1035.017" width="51.254" height="51.255"/>
					</g>
					<g>
						<rect x="827.998" y="1035.017" style="fill:#262625;" width="51.254" height="51.255"/>
						<rect x="879.251" y="1035.017" width="51.255" height="51.255"/>
					</g>
					<g>
						<rect x="930.506" y="1035.017" style="fill:#262625;" width="51.253" height="51.255"/>
						<rect x="981.759" y="1035.017" width="51.254" height="51.255"/>
					</g>
				</g>
				<g>
					<g>
						<rect x="-350.845" y="1086.272" style="fill:#262625;" width="51.254" height="51.253"/>
						<rect x="-299.591" y="1086.272" width="51.254" height="51.253"/>
					</g>
					<g>
						<rect x="-248.337" y="1086.272" style="fill:#262625;" width="51.256" height="51.253"/>
						<rect x="-197.081" y="1086.272" width="51.253" height="51.253"/>
					</g>
					<g>
						<rect x="-145.828" y="1086.272" style="fill:#262625;" width="51.253" height="51.253"/>
						<rect x="-94.575" y="1086.272" width="51.256" height="51.253"/>
					</g>
					<g>
						<rect x="-43.32" y="1086.272" style="fill:#262625;" width="51.253" height="51.253"/>
						<rect x="7.933" y="1086.272" width="51.254" height="51.253"/>
					</g>
					<g>
						<rect x="59.187" y="1086.272" style="fill:#262625;" width="51.254" height="51.253"/>
						<rect x="110.441" y="1086.272" width="51.255" height="51.253"/>
					</g>
					<g>
						<rect x="161.696" y="1086.272" style="fill:#262625;" width="51.253" height="51.253"/>
						<rect x="212.949" y="1086.272" width="51.256" height="51.253"/>
					</g>
					<g>
						<rect x="264.204" y="1086.272" style="fill:#262625;" width="51.253" height="51.253"/>
						<rect x="315.457" y="1086.272" width="51.254" height="51.253"/>
					</g>
					<g>
						<rect x="366.711" y="1086.272" style="fill:#262625;" width="51.254" height="51.253"/>
						<rect x="417.965" y="1086.272" width="51.254" height="51.253"/>
					</g>
					<g>
						<rect x="469.219" y="1086.272" style="fill:#262625;" width="51.253" height="51.253"/>
						<rect x="520.473" y="1086.272" width="51.254" height="51.253"/>
					</g>
					<g>
						<rect x="571.727" y="1086.272" style="fill:#262625;" width="51.254" height="51.253"/>
						<rect x="622.981" y="1086.272" width="51.254" height="51.253"/>
					</g>
					<g>
						<rect x="674.235" y="1086.272" style="fill:#262625;" width="51.256" height="51.253"/>
						<rect x="725.491" y="1086.272" width="51.253" height="51.253"/>
					</g>
					<g>
						<rect x="776.744" y="1086.272" style="fill:#262625;" width="51.254" height="51.253"/>
						<rect x="827.998" y="1086.272" width="51.254" height="51.253"/>
					</g>
					<g>
						<rect x="879.251" y="1086.272" style="fill:#262625;" width="51.255" height="51.253"/>
						<rect x="930.506" y="1086.272" width="51.253" height="51.253"/>
					</g>
					<g>
						<rect x="981.759" y="1086.272" style="fill:#262625;" width="51.254" height="51.253"/>
						<rect x="1033.013" y="1086.272" width="51.254" height="51.253"/>
					</g>
				</g>
				<g>
					<g>
						<rect x="-402.099" y="1137.525" style="fill:#262625;" width="51.254" height="51.254"/>
						<rect x="-350.845" y="1137.525" width="51.254" height="51.254"/>
					</g>
					<g>
						<rect x="-299.591" y="1137.525" style="fill:#262625;" width="51.254" height="51.254"/>
						<rect x="-248.337" y="1137.525" width="51.256" height="51.254"/>
					</g>
					<g>
						<rect x="-197.081" y="1137.525" style="fill:#262625;" width="51.253" height="51.254"/>
						<rect x="-145.828" y="1137.525" width="51.253" height="51.254"/>
					</g>
					<g>
						<rect x="-94.575" y="1137.525" style="fill:#262625;" width="51.256" height="51.254"/>
						<rect x="-43.32" y="1137.525" width="51.253" height="51.254"/>
					</g>
					<g>
						<rect x="7.933" y="1137.525" style="fill:#262625;" width="51.254" height="51.254"/>
						<rect x="59.187" y="1137.525" width="51.254" height="51.254"/>
					</g>
					<g>
						<rect x="110.441" y="1137.525" style="fill:#262625;" width="51.255" height="51.254"/>
						<rect x="161.696" y="1137.525" width="51.253" height="51.254"/>
					</g>
					<g>
						<rect x="212.949" y="1137.525" style="fill:#262625;" width="51.256" height="51.254"/>
						<rect x="264.204" y="1137.525" width="51.253" height="51.254"/>
					</g>
					<g>
						<rect x="315.457" y="1137.525" style="fill:#262625;" width="51.254" height="51.254"/>
						<rect x="366.711" y="1137.525" width="51.254" height="51.254"/>
					</g>
					<g>
						<rect x="417.965" y="1137.525" style="fill:#262625;" width="51.254" height="51.254"/>
						<rect x="469.219" y="1137.525" width="51.253" height="51.254"/>
					</g>
					<g>
						<rect x="520.473" y="1137.525" style="fill:#262625;" width="51.254" height="51.254"/>
						<rect x="571.727" y="1137.525" width="51.254" height="51.254"/>
					</g>
					<g>
						<rect x="622.981" y="1137.525" style="fill:#262625;" width="51.254" height="51.254"/>
						<rect x="674.235" y="1137.525" width="51.256" height="51.254"/>
					</g>
					<g>
						<rect x="725.491" y="1137.525" style="fill:#262625;" width="51.253" height="51.254"/>
						<rect x="776.744" y="1137.525" width="51.254" height="51.254"/>
					</g>
					<g>
						<rect x="827.998" y="1137.525" style="fill:#262625;" width="51.254" height="51.254"/>
						<rect x="879.251" y="1137.525" width="51.255" height="51.254"/>
					</g>
					<g>
						<rect x="930.506" y="1137.525" style="fill:#262625;" width="51.253" height="51.254"/>
						<rect x="981.759" y="1137.525" width="51.254" height="51.254"/>
					</g>
				</g>
				<g>
					<g>
						<rect x="-350.845" y="1188.779" style="fill:#262625;" width="51.254" height="51.254"/>
						<rect x="-299.591" y="1188.779" width="51.254" height="51.254"/>
					</g>
					<g>
						<rect x="-248.337" y="1188.779" style="fill:#262625;" width="51.256" height="51.254"/>
						<rect x="-197.081" y="1188.779" width="51.253" height="51.254"/>
					</g>
					<g>
						<rect x="-145.828" y="1188.779" style="fill:#262625;" width="51.253" height="51.254"/>
						<rect x="-94.575" y="1188.779" width="51.256" height="51.254"/>
					</g>
					<g>
						<rect x="-43.32" y="1188.779" style="fill:#262625;" width="51.253" height="51.254"/>
						<rect x="7.933" y="1188.779" width="51.254" height="51.254"/>
					</g>
					<g>
						<rect x="59.187" y="1188.779" style="fill:#262625;" width="51.254" height="51.254"/>
						<rect x="110.441" y="1188.779" width="51.255" height="51.254"/>
					</g>
					<g>
						<rect x="161.696" y="1188.779" style="fill:#262625;" width="51.253" height="51.254"/>
						<rect x="212.949" y="1188.779" width="51.256" height="51.254"/>
					</g>
					<g>
						<rect x="264.204" y="1188.779" style="fill:#262625;" width="51.253" height="51.254"/>
						<rect x="315.457" y="1188.779" width="51.254" height="51.254"/>
					</g>
					<g>
						<rect x="366.711" y="1188.779" style="fill:#262625;" width="51.254" height="51.254"/>
						<rect x="417.965" y="1188.779" width="51.254" height="51.254"/>
					</g>
					<g>
						<rect x="469.219" y="1188.779" style="fill:#262625;" width="51.253" height="51.254"/>
						<rect x="520.473" y="1188.779" width="51.254" height="51.254"/>
					</g>
					<g>
						<rect x="571.727" y="1188.779" style="fill:#262625;" width="51.254" height="51.254"/>
						<rect x="622.981" y="1188.779" width="51.254" height="51.254"/>
					</g>
					<g>
						<rect x="674.235" y="1188.779" style="fill:#262625;" width="51.256" height="51.254"/>
						<rect x="725.491" y="1188.779" width="51.253" height="51.254"/>
					</g>
					<g>
						<rect x="776.744" y="1188.779" style="fill:#262625;" width="51.254" height="51.254"/>
						<rect x="827.998" y="1188.779" width="51.254" height="51.254"/>
					</g>
					<g>
						<rect x="879.251" y="1188.779" style="fill:#262625;" width="51.255" height="51.254"/>
						<rect x="930.506" y="1188.779" width="51.253" height="51.254"/>
					</g>
					<g>
						<rect x="981.759" y="1188.779" style="fill:#262625;" width="51.254" height="51.254"/>
						<rect x="1033.013" y="1188.779" width="51.254" height="51.254"/>
					</g>
				</g>
			</g>
		</g>
	</g>
</g>
<g id="OBJECTS_1">
	
	
	<g>
		<path style="fill:none;stroke:#FFFFFF;stroke-width:0.7137;stroke-miterlimit:10;" d="M1164.126,781.192    c-0.02,0.828-0.363,1.615-0.949,2.2l-10.174,10.174c-0.848,0.848-2.099,1.171-3.29,0.868l-13.848-3.714    c-1.171-0.323-2.079-1.231-2.402-2.402l-3.734-13.868c-0.283-1.09-0.02-2.2,0.666-3.008c-0.02,0.343,0,0.686,0.101,1.029    l3.735,13.868c0.323,1.171,1.231,2.079,2.402,2.402l13.848,3.714c1.191,0.303,2.443-0.02,3.291-0.868l10.174-10.174    C1164.005,781.353,1164.086,781.273,1164.126,781.192z"/>
		<path style="fill:#FFFFFF;" d="M1158.696,761.873l-13.889-3.714c-1.171-0.323-2.402,0.02-3.25,0.868l-10.174,10.174    c-0.606,0.606-0.949,1.393-0.989,2.241c-0.02,0.343,0,0.686,0.101,1.029l3.735,13.868c0.323,1.171,1.231,2.079,2.402,2.402    l13.848,3.714c1.191,0.303,2.443-0.02,3.291-0.868l10.174-10.174c0.06-0.061,0.141-0.141,0.182-0.222    c0.707-0.828,0.969-1.978,0.666-3.048l-3.694-13.868C1160.775,763.104,1159.867,762.196,1158.696,761.873z M1154.679,774.853    c-0.02,0.02-0.02,0.02-0.02,0.02c0.121,1.373-0.202,2.745-0.929,3.957c-0.283,0.525-0.646,1.009-1.09,1.453    c-2.745,2.745-7.207,2.766-9.972,0c-1.776-1.776-2.382-4.28-1.877-6.561c0.101-0.343,0.202-0.686,0.343-1.03    c-0.02-0.02,0-0.04,0-0.04c0.343-0.868,0.848-1.655,1.534-2.342c2.745-2.745,7.227-2.745,9.972,0    C1153.912,771.583,1154.578,773.218,1154.679,774.853z"/>
	</g>
	<g>
		<g>
			<polygon style="fill:#FFFFFF;" points="797.749,229.385 792.42,224.055 797.749,218.725 793.938,214.914 788.608,220.243      783.278,214.914 779.467,218.725 784.797,224.055 779.467,229.385 783.278,233.196 788.608,227.866 793.938,233.196    "/>
			<polygon style="fill:#FFFFFF;" points="827.938,229.5 822.609,224.17 827.939,218.84 824.127,215.029 818.797,220.359      813.468,215.029 809.657,218.84 814.986,224.17 809.657,229.5 813.468,233.311 818.797,227.982 824.127,233.311    "/>
			<polygon style="fill:#FFFFFF;" points="858.128,229.615 852.798,224.285 858.128,218.955 854.317,215.144 848.987,220.474      843.657,215.144 839.846,218.955 845.175,224.285 839.846,229.615 843.657,233.426 848.987,228.097 854.317,233.426    "/>
		</g>
		<g>
			<polygon style="fill:#FFFFFF;" points="797.749,260.71 792.42,255.38 797.749,250.05 793.938,246.239 788.608,251.568      783.278,246.239 779.467,250.05 784.797,255.38 779.467,260.71 783.278,264.521 788.608,259.191 793.938,264.521    "/>
			<polygon style="fill:#FFFFFF;" points="827.938,260.825 822.609,255.495 827.939,250.165 824.127,246.354 818.797,251.684      813.468,246.354 809.657,250.166 814.986,255.495 809.657,260.825 813.468,264.636 818.797,259.307 824.127,264.636    "/>
			<polygon style="fill:#FFFFFF;" points="858.128,260.94 852.798,255.61 858.128,250.281 854.317,246.469 848.987,251.799      843.657,246.469 839.846,250.281 845.175,255.61 839.846,260.94 843.657,264.751 848.987,259.422 854.317,264.751    "/>
		</g>
	</g>
	<g>
		<g>
			<polygon style="fill:#FFFFFF;" points="1609.645,971.267 1604.316,965.938 1609.645,960.608 1605.834,956.796 1600.504,962.126      1595.174,956.797 1591.363,960.608 1596.693,965.938 1591.363,971.267 1595.174,975.078 1600.504,969.749 1605.834,975.078         "/>
			<polygon style="fill:#FFFFFF;" points="1639.834,971.383 1634.505,966.053 1639.835,960.723 1636.023,956.912 1630.693,962.241      1625.364,956.912 1621.553,960.723 1626.882,966.053 1621.553,971.383 1625.364,975.194 1630.693,969.864 1636.023,975.194         "/>
			<polygon style="fill:#FFFFFF;" points="1670.024,971.498 1664.694,966.168 1670.024,960.838 1666.213,957.027 1660.883,962.356      1655.553,957.027 1651.742,960.838 1657.071,966.168 1651.742,971.498 1655.553,975.309 1660.883,969.979 1666.213,975.309         "/>
		</g>
		<g>
			<polygon style="fill:#FFFFFF;" points="1609.645,1002.592 1604.316,997.263 1609.645,991.933 1605.834,988.122 1600.504,993.451      1595.174,988.122 1591.363,991.933 1596.693,997.263 1591.363,1002.592 1595.174,1006.404 1600.504,1001.074 1605.834,1006.404         "/>
			<polygon style="fill:#FFFFFF;" points="1639.834,1002.708 1634.505,997.378 1639.835,992.048 1636.023,988.237 1630.693,993.566      1625.364,988.237 1621.553,992.048 1626.882,997.378 1621.553,1002.708 1625.364,1006.519 1630.693,1001.189 1636.023,1006.519         "/>
			<polygon style="fill:#FFFFFF;" points="1670.024,1002.823 1664.694,997.493 1670.024,992.163 1666.213,988.352 1660.883,993.682      1655.553,988.352 1651.742,992.164 1657.071,997.493 1651.742,1002.823 1655.553,1006.634 1660.883,1001.305 1666.213,1006.634         "/>
		</g>
	</g>
	<g>
		
			<path style="fill:#FFFFFF;stroke:#FFFFFF;stroke-width:1.0344;stroke-linecap:round;stroke-linejoin:round;stroke-miterlimit:10;" d="    M937.667,384.74l-31.719,19.719l-0.586-0.943c-2.464-3.964-1.249-9.175,2.715-11.639l17.365-10.795    c3.964-2.464,9.175-1.248,11.639,2.715L937.667,384.74z"/>
		
			<polygon style="fill:#FFFFFF;stroke:#FFFFFF;stroke-width:0.9192;stroke-linecap:round;stroke-linejoin:round;stroke-miterlimit:10;" points="    925.753,392.147 954.997,439.188 957.24,451.604 947.105,444.094 917.861,397.053   "/>
		<g>
			
				<path style="fill:#FFFFFF;stroke:#FFFFFF;stroke-width:0.6902;stroke-linecap:round;stroke-linejoin:round;stroke-miterlimit:10;" d="     M929.943,396.065l-10.422,6.479c-0.275,0.171-0.637,0.087-0.809-0.189l-0.126-0.203c-0.171-0.276-0.087-0.638,0.188-0.809     l10.422-6.479c0.275-0.171,0.637-0.087,0.808,0.189l0.126,0.203C930.303,395.532,930.218,395.894,929.943,396.065z"/>
			
				<path style="fill:#FFFFFF;stroke:#FFFFFF;stroke-width:0.6902;stroke-linecap:round;stroke-linejoin:round;stroke-miterlimit:10;" d="     M932.045,399.447l-10.422,6.479c-0.275,0.171-0.637,0.087-0.808-0.189l-0.126-0.203c-0.171-0.275-0.087-0.637,0.188-0.808     l10.422-6.479c0.275-0.171,0.637-0.087,0.808,0.189l0.126,0.203C932.405,398.914,932.321,399.276,932.045,399.447z"/>
			
				<path style="fill:#FFFFFF;stroke:#FFFFFF;stroke-width:0.6902;stroke-linecap:round;stroke-linejoin:round;stroke-miterlimit:10;" d="     M934.148,402.829l-10.422,6.479c-0.275,0.171-0.637,0.087-0.808-0.189l-0.126-0.203c-0.171-0.275-0.087-0.637,0.189-0.808     l10.422-6.479c0.275-0.171,0.637-0.087,0.808,0.189l0.126,0.203C934.508,402.296,934.423,402.658,934.148,402.829z"/>
			
				<path style="fill:#FFFFFF;stroke:#FFFFFF;stroke-width:0.6902;stroke-linecap:round;stroke-linejoin:round;stroke-miterlimit:10;" d="     M936.25,406.211l-10.422,6.479c-0.275,0.171-0.637,0.087-0.808-0.189l-0.126-0.203c-0.171-0.275-0.087-0.637,0.189-0.808     l10.422-6.479c0.275-0.171,0.637-0.087,0.808,0.189l0.126,0.203C936.61,405.677,936.525,406.039,936.25,406.211z"/>
			
				<path style="fill:#FFFFFF;stroke:#FFFFFF;stroke-width:0.6902;stroke-linecap:round;stroke-linejoin:round;stroke-miterlimit:10;" d="     M938.353,409.592l-10.422,6.479c-0.275,0.171-0.637,0.087-0.809-0.189l-0.126-0.203c-0.171-0.275-0.087-0.638,0.189-0.809     l10.422-6.479c0.275-0.171,0.637-0.087,0.809,0.189l0.126,0.203C938.712,409.059,938.628,409.421,938.353,409.592z"/>
			
				<path style="fill:#FFFFFF;stroke:#FFFFFF;stroke-width:0.6902;stroke-linecap:round;stroke-linejoin:round;stroke-miterlimit:10;" d="     M940.455,412.974l-10.422,6.479c-0.275,0.171-0.637,0.087-0.809-0.189l-0.126-0.203c-0.171-0.276-0.087-0.638,0.188-0.809     l10.422-6.479c0.275-0.171,0.637-0.087,0.808,0.189l0.126,0.203C940.815,412.441,940.73,412.803,940.455,412.974z"/>
			
				<path style="fill:#FFFFFF;stroke:#FFFFFF;stroke-width:0.6902;stroke-linecap:round;stroke-linejoin:round;stroke-miterlimit:10;" d="     M942.557,416.356l-10.422,6.479c-0.275,0.171-0.637,0.087-0.808-0.189l-0.126-0.203c-0.171-0.275-0.087-0.637,0.189-0.808     l10.422-6.479c0.275-0.171,0.637-0.087,0.808,0.189l0.126,0.203C942.917,415.823,942.833,416.185,942.557,416.356z"/>
			
				<path style="fill:#FFFFFF;stroke:#FFFFFF;stroke-width:0.6902;stroke-linecap:round;stroke-linejoin:round;stroke-miterlimit:10;" d="     M944.66,419.738l-10.422,6.479c-0.275,0.171-0.637,0.087-0.808-0.189l-0.126-0.203c-0.171-0.275-0.087-0.637,0.189-0.808     l10.422-6.479c0.275-0.171,0.637-0.087,0.808,0.189l0.126,0.203C945.02,419.205,944.935,419.567,944.66,419.738z"/>
			
				<path style="fill:#FFFFFF;stroke:#FFFFFF;stroke-width:0.6902;stroke-linecap:round;stroke-linejoin:round;stroke-miterlimit:10;" d="     M946.762,423.119l-10.422,6.479c-0.275,0.171-0.637,0.087-0.808-0.189l-0.126-0.203c-0.171-0.275-0.087-0.637,0.188-0.809     l10.422-6.479c0.275-0.171,0.637-0.087,0.809,0.189l0.126,0.203C947.122,422.586,947.037,422.948,946.762,423.119z"/>
			
				<path style="fill:#FFFFFF;stroke:#FFFFFF;stroke-width:0.6902;stroke-linecap:round;stroke-linejoin:round;stroke-miterlimit:10;" d="     M948.865,426.501l-10.422,6.479c-0.275,0.171-0.637,0.086-0.809-0.189l-0.126-0.203c-0.171-0.275-0.087-0.638,0.188-0.809     l10.422-6.479c0.275-0.171,0.637-0.087,0.809,0.189l0.126,0.203C949.224,425.968,949.14,426.33,948.865,426.501z"/>
			
				<path style="fill:#FFFFFF;stroke:#FFFFFF;stroke-width:0.6902;stroke-linecap:round;stroke-linejoin:round;stroke-miterlimit:10;" d="     M950.967,429.883l-10.422,6.479c-0.275,0.171-0.637,0.087-0.809-0.189l-0.126-0.203c-0.171-0.276-0.086-0.637,0.189-0.808     l10.422-6.479c0.275-0.171,0.637-0.087,0.808,0.189l0.126,0.203C951.327,429.35,951.242,429.712,950.967,429.883z"/>
			
				<path style="fill:#FFFFFF;stroke:#FFFFFF;stroke-width:0.6902;stroke-linecap:round;stroke-linejoin:round;stroke-miterlimit:10;" d="     M953.175,433.435l-10.422,6.479c-0.275,0.171-0.637,0.087-0.808-0.189l-0.126-0.203c-0.171-0.275-0.087-0.637,0.189-0.808     l10.422-6.479c0.275-0.171,0.637-0.087,0.808,0.189l0.126,0.203C953.535,432.902,953.451,433.264,953.175,433.435z"/>
			
				<path style="fill:#FFFFFF;stroke:#FFFFFF;stroke-width:0.6902;stroke-linecap:round;stroke-linejoin:round;stroke-miterlimit:10;" d="     M955.384,436.988l-10.422,6.479c-0.275,0.171-0.637,0.087-0.809-0.189l-0.126-0.203c-0.171-0.275-0.087-0.637,0.188-0.809     l10.422-6.479c0.275-0.171,0.637-0.087,0.809,0.189l0.126,0.203C955.744,436.455,955.659,436.817,955.384,436.988z"/>
			
				<path style="fill:#FFFFFF;stroke:#FFFFFF;stroke-width:0.6902;stroke-linecap:round;stroke-linejoin:round;stroke-miterlimit:10;" d="     M957.592,440.541l-10.422,6.479c-0.275,0.171-0.637,0.087-0.808-0.189l-0.126-0.203c-0.171-0.275-0.087-0.637,0.189-0.808     l10.422-6.479c0.275-0.171,0.637-0.087,0.808,0.189l0.126,0.203C957.952,440.008,957.868,440.37,957.592,440.541z"/>
		</g>
	</g>
	
</g>

</svg>